<?xml version="1.0" standalone="yes"?>
<svg xmlns="http://www.w3.org/2000/svg" width="644" height="417">
<path style="fill:#423850; stroke:none;" d="M0 0L0 417L644 417L644 0L0 0z"/>
<path style="fill:#eaf0fa; stroke:none;" d="M157 227C155.109 224.348 152.7 220.746 149 220.816C146.55 220.863 144.217 222.658 142 223.522C137.181 225.398 131.592 225.525 127 222.91C112.724 214.781 113.94 193.436 130 188.225C133.672 187.033 137.324 186.863 141 188.108C143.502 188.956 146.258 191.157 148.998 190.9C151.877 190.629 154.074 187.857 156 186C146.73 173.997 125.848 174.198 115.093 184.21C104.138 194.409 102.706 214.341 112.684 225.711C115.474 228.89 119.011 231.462 123 232.895C128.031 234.703 133.686 235.299 139 234.91C145.804 234.411 151.817 231.259 157 227M395 177.518C373.967 182.012 366.553 209.654 379.789 225.711C386.59 233.962 398.821 236.654 409 234.482C430.358 229.926 437.446 201.93 423.671 186.04C416.898 178.227 404.977 175.386 395 177.518M163 178L163 234L174 234L174 215C176.896 215.002 180.266 214.608 182.91 216.028C189.604 219.623 192.662 228.285 199.015 232.397C202.71 234.788 207.8 234 212 234C209.034 226.343 201.69 219.809 196 214C210.071 209.937 215.428 190.263 201.907 181.482C191.697 174.852 174.635 178 163 178M214 178C218.544 189.99 230.257 198.878 234.298 211C236.548 217.751 235 226.933 235 234L246 234C246 226.933 244.451 217.751 246.702 211C250.734 198.906 262.535 189.552 268 178C264.393 178 259.568 177.184 256.184 178.603C253.46 179.747 251.902 182.665 250.333 185.001C246.792 190.273 243.55 195.733 240 201C237.276 194.677 231.958 182.536 225.815 179.028C222.556 177.166 217.618 178 214 178M272 178L272 234L283 234L283 217C291.191 217 302.686 219.083 309.996 214.772C321.726 207.854 322.839 188.64 310.96 181.225C300.708 174.824 283.602 178 272 178M323 178L323 188L341 188L341 234L352 234L352 188L369 188L369 178L323 178M438 178L438 234L449 234L449 213L477 213L477 203L449 203L449 188L479 188L479 178L438 178M486 178L486 204C486 210.942 485.773 217.764 489.367 223.999C498.431 239.727 525.192 238.347 532.647 222C535.27 216.249 535 210.165 535 204L535 178L524 178L524 204C524 208.587 524.685 213.8 522.427 217.985C516.98 228.081 503.252 226.351 498.14 216.999C495.655 212.454 496 206.999 496 202L496 178L486 178z"/>
<path style="fill:#423850; stroke:none;" d="M395.001 187.819C383.327 192.054 380.417 209.557 387.649 218.895C392.488 225.144 401.866 226.376 409 223.891C421.317 219.601 423.614 201.454 415.468 192.188C410.791 186.869 401.562 185.438 395.001 187.819M174 188L174 206C180.057 206 188.447 207.481 193.956 204.543C200.641 200.978 200.07 191.536 192.985 188.742C187.588 186.614 179.731 188 174 188M283 188L283 208C289.557 208 298.992 209.601 304.786 205.86C311.073 201.801 309.506 191.823 302.957 189.009C297.285 186.572 289.068 188 283 188z"/>
</svg>
